<?xml version="1.0" encoding="UTF-8"?><!DOCTYPE svg PUBLIC "-//W3C//DTD SVG 1.1//EN" "http://www.w3.org/Graphics/SVG/1.1/DTD/svg11.dtd"><svg xmlns="http://www.w3.org/2000/svg"><symbol id="icon-facebook" viewBox="0 0 10 19">
    <title>
        facebook
    </title>
    <path d="M9.766.157v2.946H8.014c-.64 0-1.071.134-1.295.402-.223.268-.335.67-.335 1.205v2.11h3.27l-.435 3.303H6.384v8.471H2.97v-8.47H.123V6.82H2.97V4.387c0-1.384.387-2.457 1.161-3.22C4.904.404 5.934.023 7.222.023c1.093 0 1.941.045 2.544.134z" fill-rule="evenodd"/>
</symbol><symbol id="icon-file" viewBox="0 0 60 60">
    <path d="M42.5 22h-25a1 1 0 1 0 0 2h25a1 1 0 1 0 0-2z"/>
    <path d="M17.5 16h10a1 1 0 1 0 0-2h-10a1 1 0 1 0 0 2z"/>
    <path d="M42.5 30h-25a1 1 0 1 0 0 2h25a1 1 0 1 0 0-2z"/>
    <path d="M42.5 38h-25a1 1 0 1 0 0 2h25a1 1 0 1 0 0-2z"/>
    <path d="M42.5 46h-25a1 1 0 1 0 0 2h25a1 1 0 1 0 0-2z"/>
    <path d="M38.914 0H6.5v60h47V14.586L38.914 0zm.586 3.414L50.086 14H39.5V3.414zM8.5 58V2h29v14h14v42h-43z"/>
</symbol><symbol id="icon-link" viewBox="0 0 512 512">
    <path d="M487.6 90.6l-66.2-66.2c-9.3-10.5-39.1-24.2-64.6 0L241.7 139.6c-17.8 17.8-17.8 46.8 0 64.6l19.2 19.2-37.6 37.6-19.2-19.2c-8.6-8.6-35.7-25.1-64.6 0L24.4 356.9c-17.8 17.8-17.8 46.8 0 64.6l66.2 66.2c22.7 22.7 52.4 12.1 64.6 0l115.2-115.2c17.8-17.8 17.8-46.8 0-64.6l-19.2-19.2 37.6-37.6 19.2 19.2c27.7 23.8 53.5 11 64.6 0l115.2-115.2c17.6-17.8 17.6-46.7-.2-64.5zm-245 245c2.5 2.5 2.5 6.6 0 9.1L127.4 459.9c-2.5 2.5-6.3 2.9-9.1 0l-66.2-66.2c-2.5-2.5-2.5-6.6 0-9.1l115.2-115.2c3.1-3.1 7.1-2 9.1 0l19.2 19.2-32.5 32.5c-7.7 7.7-7.7 20.1 0 27.7 3.8 3.8 17.3 10.4 27.7 0l32.5-32.5 19.3 19.3zm217.3-208.2L344.7 242.6c-2.5 2.5-6.3 2.9-9.1 0l-19.2-19.2 32.5-32.5c7.7-7.7 7.7-20.1 0-27.7-7.7-7.7-20.1-7.7-27.7 0l-32.5 32.5-19.2-19.2c-2.5-2.5-2.5-6.6 0-9.1L384.6 52.1c3.1-3.1 7.1-2.1 9.1 0l66.2 66.2c2.5 2.5 2.5 6.6 0 9.1z"/>
</symbol><symbol id="icon-polaroid" viewBox="0 0 100 111.143">
    <path d="M18.989 0v11.101h5.539V6.683H94.46v68.628H83.641v22.394H100V0z"/>
    <path d="M0 111.143h81.012V13.438H0v97.705zm5.54-91.022h69.933V88.75H5.54V20.121z"/>
</symbol><symbol id="icon-quotes" viewBox="0 0 512.5 512.5">
    <path d="M112.5 208.25c61.856 0 112 50.145 112 112s-50.144 112-112 112-112-50.145-112-112l-.5-16c0-123.712 100.288-224 224-224v64c-42.737 0-82.917 16.643-113.137 46.863a162.322 162.322 0 0 0-15.915 18.51c5.719-.9 11.58-1.373 17.552-1.373zm288 0c61.855 0 112 50.145 112 112s-50.145 112-112 112-112-50.145-112-112l-.5-16c0-123.712 100.287-224 224-224v64c-42.736 0-82.918 16.643-113.137 46.863a162.23 162.23 0 0 0-15.916 18.51 112.84 112.84 0 0 1 17.553-1.373z"/>
</symbol></svg>