<?xml version="1.0" encoding="UTF-8"?><!DOCTYPE svg PUBLIC "-//W3C//DTD SVG 1.1//EN" "http://www.w3.org/Graphics/SVG/1.1/DTD/svg11.dtd"><svg xmlns="http://www.w3.org/2000/svg"><symbol id="icon-cogwheel" viewBox="0 0 512 512">
    <path d="M256 192c-35.285 0-64 28.715-64 64s28.715 64 64 64 64-28.715 64-64-28.715-64-64-64z"/>
    <path d="M494.699 212.48l-28.245-5.44c-12.651-2.411-22.571-10.688-27.285-22.635-4.715-12.011-3.051-24.832 4.587-35.221l17.728-24.192c6.229-8.469 5.312-20.245-2.133-27.669L421.058 59.03c-7.211-7.232-18.603-8.299-27.029-2.581L370.2 72.556c-10.624 7.232-23.467 8.405-35.307 3.285-11.797-5.163-19.712-15.403-21.653-28.139l-4.565-29.611C307.072 7.68 298.112 0 287.573 0h-54.144c-10.219 0-19.008 7.253-20.949 17.301l-7.019 36.48c-2.368 12.352-10.389 22.208-22.016 27.008-11.627 4.843-24.299 3.541-34.709-3.52l-30.763-20.821c-8.427-5.717-19.776-4.651-27.029 2.581L52.651 97.323c-7.445 7.424-8.363 19.2-2.133 27.669l17.728 24.213c7.637 10.368 9.301 23.189 4.587 35.2-4.715 11.947-14.635 20.224-27.307 22.635l-28.224 5.44C7.253 214.421 0 223.211 0 233.429v54.144c0 10.539 7.68 19.499 18.091 21.099l29.611 4.565c12.736 1.941 22.976 9.856 28.139 21.653 5.141 11.797 3.947 24.661-3.285 35.328l-16.107 23.808c-5.739 8.448-4.651 19.797 2.581 27.029l38.293 38.293c7.445 7.467 19.2 8.32 27.669 2.133l24.213-17.728c10.368-7.616 23.168-9.259 35.2-4.587 11.947 4.715 20.224 14.635 22.635 27.307l5.44 28.224c1.941 10.05 10.731 17.303 20.949 17.303h54.144c10.539 0 19.499-7.68 21.099-18.091l3.2-20.821c2.005-13.035 10.133-23.381 22.293-28.395 12.075-5.035 25.195-3.477 35.84 4.331l17.003 12.459c8.427 6.187 20.224 5.333 27.669-2.133l38.293-38.293c7.232-7.232 8.32-18.581 2.581-27.029l-16.107-23.829c-7.232-10.645-8.427-23.509-3.285-35.307 5.163-11.797 15.403-19.712 28.139-21.653l29.611-4.565c10.411-1.6 18.091-10.56 18.091-21.099v-54.144c0-10.22-7.253-19.01-17.301-20.951zM256 362.667c-58.816 0-106.667-47.851-106.667-106.667S197.184 149.333 256 149.333 362.667 197.184 362.667 256 314.816 362.667 256 362.667z"/>
</symbol><symbol id="icon-facebook" viewBox="0 0 10 19">
    <title>
        facebook
    </title>
    <path d="M9.766.157v2.946H8.014c-.64 0-1.071.134-1.295.402-.223.268-.335.67-.335 1.205v2.11h3.27l-.435 3.303H6.384v8.471H2.97v-8.47H.123V6.82H2.97V4.387c0-1.384.387-2.457 1.161-3.22C4.904.404 5.934.023 7.222.023c1.093 0 1.941.045 2.544.134z" fill-rule="evenodd"/>
</symbol><symbol id="icon-four-squares" viewBox="0 0 606.877 606.877">
    <path d="M58.64 280.154h162.654c32.058 0 58.14-26.082 58.14-58.14V59.36c0-32.059-26.082-58.14-58.14-58.14H58.64C26.582 1.22.5 27.301.5 59.36v162.654c0 32.058 26.082 58.14 58.14 58.14zM43.34 59.36c0-8.45 6.85-15.3 15.3-15.3h162.654c8.45 0 15.3 6.85 15.3 15.3v162.654c0 8.45-6.85 15.3-15.3 15.3H58.64c-8.45 0-15.3-6.85-15.3-15.3V59.36z"/>
    <path d="M221.294 280.654H58.64c-32.334 0-58.64-26.306-58.64-58.64V59.36C0 27.025 26.306.72 58.64.72h162.654c32.334 0 58.64 26.306 58.64 58.64v162.654c0 32.334-26.306 58.64-58.64 58.64zM58.64 1.72C26.857 1.72 1 27.577 1 59.36v162.654c0 31.783 25.857 57.64 57.64 57.64h162.654c31.783 0 57.64-25.857 57.64-57.64V59.36c0-31.783-25.857-57.64-57.64-57.64H58.64zm162.654 236.093H58.64c-8.712 0-15.8-7.088-15.8-15.8V59.36c0-8.712 7.088-15.8 15.8-15.8h162.654c8.712 0 15.8 7.088 15.8 15.8v162.654c0 8.712-7.088 15.799-15.8 15.799zM58.64 44.56c-8.161 0-14.8 6.639-14.8 14.8v162.654c0 8.161 6.639 14.8 14.8 14.8h162.654c8.161 0 14.8-6.639 14.8-14.8V59.36c0-8.161-6.639-14.8-14.8-14.8H58.64z"/>
    <path d="M548.238 1.22H385.584c-32.059 0-58.141 26.082-58.141 58.14v162.654c0 32.058 26.082 58.14 58.141 58.14h162.654c32.059 0 58.139-26.082 58.139-58.14V59.36c0-32.059-26.08-58.14-58.139-58.14zm15.299 220.794c0 8.45-6.85 15.3-15.299 15.3H385.584c-8.449 0-15.301-6.85-15.301-15.3V59.36c0-8.45 6.852-15.3 15.301-15.3h162.654c8.449 0 15.299 6.85 15.299 15.3v162.654z"/>
    <path d="M548.238 280.654H385.584c-32.335 0-58.641-26.306-58.641-58.64V59.36c0-32.334 26.306-58.64 58.641-58.64h162.654c32.333 0 58.639 26.306 58.639 58.64v162.654c0 32.334-26.306 58.64-58.639 58.64zM385.584 1.72c-31.783 0-57.641 25.857-57.641 57.64v162.654c0 31.783 25.857 57.64 57.641 57.64h162.654c31.782 0 57.639-25.857 57.639-57.64V59.36c0-31.783-25.856-57.64-57.639-57.64H385.584zm162.654 236.093H385.584c-8.713 0-15.801-7.088-15.801-15.8V59.36c0-8.712 7.088-15.8 15.801-15.8h162.654c8.712 0 15.799 7.088 15.799 15.8v162.654c0 8.712-7.087 15.799-15.799 15.799zM385.584 44.56c-8.161 0-14.801 6.639-14.801 14.8v162.654c0 8.161 6.64 14.8 14.801 14.8h162.654c8.16 0 14.799-6.639 14.799-14.8V59.36c0-8.161-6.639-14.8-14.799-14.8H385.584z"/>
    <path d="M58.64 605.657h162.654c32.058 0 58.14-26.08 58.14-58.139V384.864c0-32.059-26.082-58.141-58.14-58.141H58.64C26.582 326.723.5 352.805.5 384.864v162.654c0 32.059 26.082 58.139 58.14 58.139zm-15.3-220.793c0-8.449 6.85-15.301 15.3-15.301h162.654c8.45 0 15.3 6.852 15.3 15.301v162.654c0 8.449-6.85 15.299-15.3 15.299H58.64c-8.45 0-15.3-6.85-15.3-15.299V384.864z"/>
    <path d="M221.294 606.157H58.64C26.306 606.157 0 579.852 0 547.519V384.864c0-32.335 26.306-58.641 58.64-58.641h162.654c32.334 0 58.64 26.306 58.64 58.641v162.654c0 32.334-26.306 58.639-58.64 58.639zM58.64 327.224c-31.783 0-57.64 25.857-57.64 57.64v162.654c0 31.782 25.857 57.639 57.64 57.639h162.654c31.783 0 57.64-25.856 57.64-57.639V384.864c0-31.783-25.857-57.641-57.64-57.641H58.64zm162.654 236.093H58.64c-8.712 0-15.8-7.087-15.8-15.799V384.864c0-8.713 7.088-15.801 15.8-15.801h162.654c8.712 0 15.8 7.088 15.8 15.801v162.654c0 8.712-7.088 15.799-15.8 15.799zM58.64 370.063c-8.161 0-14.8 6.64-14.8 14.801v162.654c0 8.16 6.639 14.799 14.8 14.799h162.654c8.161 0 14.8-6.639 14.8-14.799V384.864c0-8.161-6.639-14.801-14.8-14.801H58.64z"/>
    <path d="M548.238 326.724H385.584c-32.059 0-58.141 26.082-58.141 58.141v162.654c0 32.059 26.082 58.139 58.141 58.139h162.654c32.059 0 58.139-26.08 58.139-58.139V384.864c0-32.058-26.08-58.14-58.139-58.14zm15.299 220.795c0 8.449-6.85 15.299-15.299 15.299H385.584c-8.449 0-15.301-6.85-15.301-15.299V384.864c0-8.449 6.852-15.301 15.301-15.301h162.654c8.449 0 15.299 6.852 15.299 15.301v162.655z"/>
    <path d="M548.238 606.157H385.584c-32.335 0-58.641-26.306-58.641-58.639V384.864c0-32.335 26.306-58.641 58.641-58.641h162.654c32.333 0 58.639 26.306 58.639 58.641v162.654c0 32.334-26.306 58.639-58.639 58.639zM385.584 327.224c-31.783 0-57.641 25.857-57.641 57.641v162.654c0 31.782 25.857 57.639 57.641 57.639h162.654c31.782 0 57.639-25.856 57.639-57.639V384.864c0-31.783-25.856-57.641-57.639-57.641H385.584zm162.654 236.093H385.584c-8.713 0-15.801-7.087-15.801-15.799V384.864c0-8.713 7.088-15.801 15.801-15.801h162.654c8.712 0 15.799 7.088 15.799 15.801v162.654c0 8.712-7.087 15.799-15.799 15.799zM385.584 370.063c-8.161 0-14.801 6.64-14.801 14.801v162.654c0 8.16 6.64 14.799 14.801 14.799h162.654c8.16 0 14.799-6.639 14.799-14.799V384.864c0-8.161-6.639-14.801-14.799-14.801H385.584z"/>
</symbol><symbol id="icon-house-frame" viewBox="0 0 75.821 75.821">
    <path d="M74.944 36.289l-9.469-9.471c-.003 0-.003-.003-.006-.003L41.016 2.362l-.003-.003-.988-.988a2.99 2.99 0 0 0-4.231 0l-.988.988-.003.001-24.452 24.456c-.003 0-.003.003-.006.003L.876 36.29a2.992 2.992 0 0 0 4.232 4.231l4.364-4.364v31.935c0 3.989 3.245 7.234 7.232 7.234h42.412c3.987 0 7.232-3.245 7.232-7.234V36.156l4.364 4.364c.583.584 1.35.877 2.116.877s1.532-.292 2.115-.877a2.99 2.99 0 0 0 .001-4.231zM59.116 69.34H16.704a1.251 1.251 0 0 1-1.248-1.25V30.172L37.91 7.718l22.453 22.454v37.919a1.25 1.25 0 0 1-1.247 1.249z"/>
</symbol><symbol id="icon-interface" viewBox="0 0 508.52 508.52">
    <g>
        <path d="M444.955 0H63.565C46.021 0 31.782 14.239 31.782 31.782v444.955c0 17.544 14.239 31.782 31.782 31.782h381.39c17.544 0 31.782-14.239 31.782-31.782V31.782C476.737 14.239 462.499 0 444.955 0zm0 476.737H63.565V31.782h381.39v444.955z"/>
        <path d="M238.369 127.13h127.13c8.74 0 15.891-7.119 15.891-15.891s-7.151-15.891-15.891-15.891h-127.13c-8.772 0-15.891 7.119-15.891 15.891s7.119 15.891 15.891 15.891z"/>
        <path d="M143.021 222.477h222.477c8.74 0 15.891-7.119 15.891-15.891s-7.151-15.891-15.891-15.891H143.021c-8.772 0-15.891 7.119-15.891 15.891s7.119 15.891 15.891 15.891z"/>
        <path d="M143.021 317.825h222.477c8.74 0 15.891-7.151 15.891-15.891s-7.151-15.891-15.891-15.891H143.021c-8.772 0-15.891 7.151-15.891 15.891s7.119 15.891 15.891 15.891z"/>
        <path d="M143.021 413.172h222.477c8.74 0 15.891-7.151 15.891-15.891s-7.151-15.891-15.891-15.891H143.021c-8.772 0-15.891 7.151-15.891 15.891s7.119 15.891 15.891 15.891z"/>
    </g>
</symbol><symbol id="icon-layers-1" viewBox="0 0 512 512">
    <path d="M500.883 343.939l-63.441-34.606 63.44-34.604c14.823-8.086 14.824-29.371.001-37.457l-63.441-34.606 63.44-34.604c14.824-8.086 14.824-29.371 0-37.457l-234.667-128a21.334 21.334 0 0 0-20.431 0l-234.667 128c-14.824 8.086-14.824 29.371 0 37.457l63.44 34.604-63.441 34.606c-14.823 8.086-14.823 29.371.001 37.457l63.44 34.604-63.441 34.606c-14.823 8.086-14.823 29.371.001 37.457l234.667 128a21.334 21.334 0 0 0 20.431 0l234.667-128c14.824-8.086 14.824-29.371.001-37.457zM256 45.634l190.116 103.699L256 253.033l-190.116-103.7L256 45.634zM119.105 226.967l126.68 69.095c.374.204.753.393 1.135.573.025.012.049.026.074.037.176.082.356.152.534.229a20.506 20.506 0 0 0 3.055 1.061c.062.016.124.038.186.053 1.243.315 2.509.511 3.78.598a21.415 21.415 0 0 0 6.685-.598c.063-.016.124-.037.186-.053.714-.188 1.42-.414 2.117-.677.315-.119.627-.25.938-.384.178-.077.358-.146.534-.229.025-.012.049-.026.074-.037.382-.18.761-.369 1.135-.573l126.68-69.095 53.222 29.032L256 359.699l-190.117-103.7 53.222-29.032zM256 466.366l-190.117-103.7 53.222-29.032 126.68 69.095c.374.204.753.393 1.135.573.025.012.049.026.074.037.176.082.356.152.534.229a20.506 20.506 0 0 0 3.055 1.061c.062.016.124.038.186.053.066.017.133.028.199.044 3.307.803 6.76.803 10.067 0 .066-.016.133-.027.199-.044.063-.016.124-.037.186-.053.714-.188 1.42-.414 2.117-.677.315-.119.627-.25.938-.384.178-.077.358-.146.534-.229.025-.012.049-.026.074-.037.382-.18.761-.369 1.135-.573l126.68-69.095 53.222 29.032L256 466.366z"/>
</symbol><symbol id="icon-layers-2" viewBox="0 0 511.998 511.998">
    <path d="M499.839 288.601l-53.456-32.602 53.456-32.602a25.372 25.372 0 0 0 0-43.318L269.21 39.423a25.372 25.372 0 0 0-26.42 0L12.159 180.079a25.372 25.372 0 0 0 0 43.318l53.456 32.602-53.456 32.602a25.372 25.372 0 0 0 0 43.318l230.629 140.657c4.056 2.473 8.633 3.711 13.211 3.711s9.153-1.236 13.211-3.711l230.629-140.657a25.368 25.368 0 0 0 12.159-21.659 25.368 25.368 0 0 0-12.159-21.659zM255.999 90.798l181.906 110.94L255.999 312.68 74.095 201.738l181.904-110.94zm0 330.402L74.095 310.26l40.245-24.544 128.45 78.34c4.056 2.473 8.633 3.711 13.211 3.711s9.153-1.236 13.211-3.711l128.45-78.34 40.245 24.544L255.999 421.2z"/>
</symbol><symbol id="icon-left-arrow" viewBox="0 0 129 129">
    <path d="M88.6 121.3c.8.8 1.8 1.2 2.9 1.2s2.1-.4 2.9-1.2c1.6-1.6 1.6-4.2 0-5.8l-51-51 51-51c1.6-1.6 1.6-4.2 0-5.8s-4.2-1.6-5.8 0l-54 53.9c-1.6 1.6-1.6 4.2 0 5.8l54 53.9z"/>
</symbol><symbol id="icon-link" viewBox="0 0 512 512">
    <path d="M484.969 27.027C467.542 9.601 444.372.004 419.726.004c-24.644 0-47.814 9.597-65.241 27.023l-74.619 74.621c-21.021 21.021-30.653 51.087-25.766 80.428 1.216 7.303 8.132 12.237 15.423 11.019 7.302-1.217 12.234-8.122 11.019-15.424-3.469-20.819 3.365-42.153 18.279-57.067l74.621-74.621c12.363-12.364 28.802-19.173 46.286-19.173s33.923 6.809 46.286 19.173c12.368 12.367 19.18 28.806 19.18 46.286s-6.813 33.918-19.18 46.286l-78.841 78.841c-14.256 14.257-34.548 20.288-54.28 16.148-7.244-1.527-14.351 3.115-15.872 10.361-1.523 7.244 3.118 14.351 10.362 15.872a86.675 86.675 0 0 0 17.854 1.86c22.62 0 44.504-8.901 60.89-25.285l78.843-78.841C502.399 140.08 512 116.91 512 92.27s-9.601-47.81-27.031-65.243z"/>
    <path d="M257.897 329.944c-1.205-7.303-8.101-12.244-15.407-11.042-7.303 1.205-12.246 8.104-11.042 15.406a66.49 66.49 0 0 1 .89 10.802c0 17.49-6.806 33.927-19.165 46.286l-74.621 74.621c-12.363 12.364-28.802 19.173-46.286 19.173s-33.923-6.809-46.286-19.173c-12.364-12.363-19.173-28.801-19.173-46.285 0-17.482 6.809-33.915 19.173-46.274l74.619-74.634c14.898-14.895 36.23-21.722 57.06-18.263 7.291 1.212 14.203-3.723 15.418-11.027 1.213-7.302-3.723-14.206-11.025-15.419-29.344-4.867-59.405 4.751-80.408 25.754l-74.617 74.633C9.598 371.921 0 395.087 0 419.731s9.597 47.813 27.023 65.241c17.427 17.427 40.597 27.023 65.242 27.023 24.644 0 47.814-9.597 65.241-27.025l74.621-74.621c17.421-17.423 27.017-40.593 27.017-65.242 0-5.045-.419-10.148-1.247-15.163z"/>
    <path d="M363.456 148.543c-5.235-5.233-13.722-5.233-18.956 0L148.534 344.509c-5.234 5.235-5.234 13.722 0 18.956 2.616 2.616 6.047 3.926 9.477 3.926s6.86-1.308 9.477-3.926l195.967-195.966c5.235-5.235 5.235-13.722.001-18.956z"/>
</symbol><symbol id="icon-list-rectangular-symbol" viewBox="0 0 36 36">
    <path d="M28.947 14.236H13.332v-3h15.615v3zm0 2.264H13.332v3h15.615v-3zm0 5.262H13.332v3h15.615v-3zM10.201 11.236H7.053v3h3.148v-3zm0 5.264H7.053v3h3.148v-3zm0 5.262H7.053v3h3.148v-3zM36 6v24a2 2 0 0 1-2 2H2a2 2 0 0 1-2-2V6a2 2 0 0 1 2-2h32a2 2 0 0 1 2 2zm-4 2H4v20h28V8z"/>
</symbol><symbol id="icon-magnifying-glass" viewBox="0 0 30.239 30.239">
    <path d="M20.194 3.46c-4.613-4.613-12.121-4.613-16.734 0-4.612 4.614-4.612 12.121 0 16.735 4.108 4.107 10.506 4.547 15.116 1.34.097.459.319.897.676 1.254l6.718 6.718a2.498 2.498 0 0 0 3.535 0 2.496 2.496 0 0 0 0-3.535l-6.718-6.72a2.5 2.5 0 0 0-1.253-.674c3.209-4.611 2.769-11.008-1.34-15.118zm-2.121 14.614c-3.444 3.444-9.049 3.444-12.492 0-3.442-3.444-3.442-9.048 0-12.492 3.443-3.443 9.048-3.443 12.492 0 3.444 3.444 3.444 9.048 0 12.492z"/>
</symbol><symbol id="icon-multimedia" viewBox="0 0 129 129">
    <path d="M35 49.5h59c2.3 0 4.1-1.8 4.1-4.1s-1.8-4.1-4.1-4.1H35c-2.3 0-4.1 1.8-4.1 4.1s1.8 4.1 4.1 4.1z"/>
    <path d="M35 69.3h59c2.3 0 4.1-1.8 4.1-4.1s-1.8-4.1-4.1-4.1H35c-2.3 0-4.1 1.8-4.1 4.1s1.8 4.1 4.1 4.1z"/>
    <path d="M10.5 95.8h13.2v13.5c0 1.6.9 3 2.3 3.7.6.3 1.2.4 1.8.4.9 0 1.8-.3 2.5-.8l22-16.7h66.2c2.3 0 4.1-1.8 4.1-4.1V18.9c0-2.3-1.8-4.1-4.1-4.1h-108c-2.3 0-4.1 1.8-4.1 4.1v72.8c0 2.3 1.9 4.1 4.1 4.1zM14.6 23h99.7v64.6H50.9c-.9 0-1.8.3-2.5.8L31.9 101v-9.3c0-2.3-1.8-4.1-4.1-4.1H14.6V23z"/>
</symbol><symbol id="icon-paper-plane" viewBox="0 0 469.038 469.038">
    <path d="M465.023 4.079c-3.9-3.9-9.9-5-14.9-2.8l-442 193.7c-4.7 2.1-7.8 6.6-8.1 11.7s2.4 9.9 6.8 12.4l154.1 87.4 91.5 155.7c2.4 4.1 6.9 6.7 11.6 6.7h.8c5.1-.3 9.5-3.4 11.6-8.1l191.5-441.8c2.2-5.1 1.1-11-2.9-14.9zm-70.3 50.9l-226.2 224.7-124.9-70.8 351.1-153.9zm-132.5 370.6l-74.5-126.9 227.5-226-153 352.9z"/>
</symbol><symbol id="icon-right-arrow" viewBox="0 0 129 129">
    <path d="M40.4 121.3c-.8.8-1.8 1.2-2.9 1.2s-2.1-.4-2.9-1.2c-1.6-1.6-1.6-4.2 0-5.8l51-51-51-51c-1.6-1.6-1.6-4.2 0-5.8 1.6-1.6 4.2-1.6 5.8 0l53.9 53.9c1.6 1.6 1.6 4.2 0 5.8l-53.9 53.9z"/>
</symbol><symbol id="icon-share" viewBox="0 0 58.995 58.995">
    <path d="M39.927 41.929c-.524.524-.975 1.1-1.365 1.709l-17.28-10.489a9.93 9.93 0 0 0 .716-3.693 9.949 9.949 0 0 0-.715-3.693l17.284-10.409C40.342 18.142 43.454 20 46.998 20c5.514 0 10-4.486 10-10s-4.486-10-10-10-10 4.486-10 10a9.94 9.94 0 0 0 .667 3.562L20.358 23.985c-1.788-2.724-4.866-4.529-8.361-4.529-5.514 0-10 4.486-10 10s4.486 10 10 10c3.495 0 6.572-1.805 8.36-4.529L37.661 45.43a9.987 9.987 0 0 0-.664 3.57 9.932 9.932 0 0 0 2.929 7.071c1.949 1.949 4.51 2.924 7.071 2.924s5.122-.975 7.071-2.924c1.889-1.889 2.929-4.4 2.929-7.071s-1.04-5.183-2.929-7.071c-3.899-3.9-10.242-3.9-14.141 0zM46.998 2c4.411 0 8 3.589 8 8s-3.589 8-8 8-8-3.589-8-8 3.588-8 8-8zm-35 35.456c-4.411 0-8-3.589-8-8s3.589-8 8-8 8 3.589 8 8-3.589 8-8 8zm40.656 17.201c-3.119 3.119-8.194 3.119-11.313 0A7.95 7.95 0 0 1 38.998 49a7.95 7.95 0 0 1 2.343-5.657c1.56-1.56 3.608-2.339 5.657-2.339s4.097.779 5.657 2.339c1.511 1.511 2.343 3.521 2.343 5.657s-.832 4.146-2.344 5.657z"/>
</symbol><symbol id="icon-star" viewBox="0 0 475.075 475.075">
    <path d="M475.075 186.573c0-7.043-5.328-11.42-15.992-13.135L315.766 152.6 251.529 22.694c-3.614-7.804-8.281-11.704-13.99-11.704-5.708 0-10.372 3.9-13.989 11.704L159.31 152.6 15.986 173.438C5.33 175.153 0 179.53 0 186.573c0 3.999 2.38 8.567 7.139 13.706l103.924 101.068L86.51 444.096c-.381 2.666-.57 4.575-.57 5.712 0 3.997.998 7.374 2.996 10.136 1.997 2.766 4.993 4.142 8.992 4.142 3.428 0 7.233-1.137 11.42-3.423l128.188-67.386 128.194 67.379c4 2.286 7.806 3.43 11.416 3.43 7.812 0 11.714-4.75 11.714-14.271 0-2.471-.096-4.374-.287-5.716l-24.551-142.744 103.634-101.069c4.948-4.956 7.419-9.526 7.419-13.713zM324.619 288.5l20.551 120.2-107.634-56.821L129.614 408.7l20.843-120.2-87.365-84.799 120.484-17.7 53.959-109.064 53.957 109.064 120.494 17.7-87.367 84.799z"/>
</symbol><symbol id="icon-twitter-logo" viewBox="0 0 97.75 97.75">
    <path d="M48.875 0C21.882 0 0 21.882 0 48.875S21.882 97.75 48.875 97.75 97.75 75.868 97.75 48.875 75.868 0 48.875 0zm-5.938 63.857c1.642 1.693 3.636 2.541 5.978 2.541h16.876c2.339 0 4.352.865 6.023 2.593 1.677 1.726 2.511 3.794 2.511 6.21 0 2.415-.834 4.488-2.511 6.211C70.141 83.137 68.137 84 65.793 84h-16.87c-7.026 0-13.03-2.572-18.017-7.72-4.989-5.146-7.482-11.345-7.482-18.597V22.558c0-2.484.831-4.575 2.493-6.269 1.66-1.691 3.69-2.539 6.085-2.539 2.325 0 4.325.862 5.981 2.592 1.664 1.723 2.496 3.792 2.496 6.21v8.799h25.287c2.351 0 4.363.863 6.045 2.59 1.681 1.725 2.517 3.796 2.517 6.213 0 2.412-.836 4.484-2.513 6.209-1.674 1.726-3.684 2.588-6.022 2.588H40.477v8.724c0 2.425.819 4.483 2.46 6.182z"/>
</symbol><symbol id="icon-web" viewBox="0 0 512 512">
    <path d="M0 64v384h512V64H0zm469.333 341.333H42.667V106.667h426.667v298.666z"/>
    <path d="M128 128h42.667v42.667H128z"/>
    <path d="M64 128h42.667v42.667H64z"/>
    <path d="M0 192h512v42.667H0z"/>
</symbol></svg>